<svg width="169" height="169" viewBox="0 0 169 169" fill="none" xmlns="http://www.w3.org/2000/svg">
<path d="M84.5 169C131.168 169 169 131.168 169 84.5C169 37.8319 131.168 0 84.5 0C37.8319 0 0 37.8319 0 84.5C0 131.168 37.8319 169 84.5 169Z" fill="#CEF564"/>
<path d="M98.5793 149.107C102.126 148.393 104.112 150.485 104.66 153.202C105.208 155.919 104.189 158.617 100.636 159.338C97.0888 160.052 95.1022 157.96 94.5546 155.249C94.007 152.538 95.032 149.822 98.5793 149.107Z" fill="#016450"/>
<path d="M74.8658 22.1789C71.2999 22.7912 69.3769 20.6353 68.912 17.9054C68.4472 15.1755 69.5487 12.5094 73.1147 11.897C76.6806 11.2847 78.6037 13.4406 79.0685 16.1705C79.5334 18.9004 78.4317 21.5729 74.8658 22.1789Z" fill="#016450"/>
<path d="M69.1152 90.2631C69.0334 89.9813 68.9142 89.7118 68.7609 89.4616C68.6089 89.1734 68.54 88.8486 68.5619 88.5235C68.5619 88.2937 68.6614 88.1321 68.4376 87.9893C68.3008 87.9219 68.1569 87.8699 68.0087 87.8339L65.6964 87.1133C65.9875 88.159 66.5669 89.1019 67.3685 89.8344C67.8651 90.6418 68.4308 91.4047 69.0592 92.1144C68.9596 91.8955 68.9047 91.659 68.8976 91.4186C68.8852 91.0459 69.1711 90.6545 69.1152 90.2631Z" fill="#016450"/>
<path d="M65.5969 86.343C66.5045 86.6225 67.4182 86.8959 68.3196 87.1879C68.639 87.2584 68.927 87.4306 69.1401 87.6787C69.3763 88.0142 69.2395 88.2999 69.2582 88.7038C69.2582 89.325 69.8176 89.7475 69.8238 90.3625C69.8238 90.7353 69.5876 91.0583 69.6001 91.4249C69.6509 91.7625 69.788 92.0813 69.9979 92.3506C70.7978 93.4438 71.9292 94.2499 73.224 94.6492C74.7788 95.1391 76.3989 95.3905 78.029 95.3947C78.3549 95.421 78.6822 95.3661 78.9816 95.2349C79.281 95.1037 79.5432 94.9003 79.7447 94.643C80.0412 94.2427 80.2682 93.7954 80.416 93.3197C79.6034 92.85 78.91 92.1995 78.3896 91.4187C77.6685 90.4247 77.0034 89.3996 76.3134 88.3869C76.028 87.8556 75.6703 87.3664 75.2505 86.9332C74.781 86.6417 74.2597 86.4435 73.7151 86.3492C73.1838 86.2184 72.6436 86.1271 72.0989 86.0758C71.6451 86.0323 71.1852 86.0758 70.7376 85.964C70.3922 85.9146 70.0762 85.7422 69.8478 85.4786C69.6194 85.2149 69.4939 84.8777 69.4944 84.5289C69.4944 83.8455 69.886 83.218 69.9046 82.5409C69.9046 82.1308 69.6436 82.0314 69.4198 81.727C69.1276 81.3294 69.3452 80.9194 69.3514 80.4845C69.2999 79.9311 69.2148 79.3813 69.0966 78.8382C69.0406 78.3784 69.022 77.9063 69.0095 77.4403C69.0095 75.5765 69.2209 73.5699 68.1331 71.9422C67.8782 71.557 68.506 71.1967 68.7547 71.5818C69.9419 73.3524 69.6871 75.5393 69.7306 77.5584C69.7347 78.0701 69.7762 78.5809 69.8549 79.0867C69.9622 79.5463 70.0328 80.0137 70.0663 80.4845C70.0663 80.7516 69.8984 81.1617 70.0663 81.3729C70.2341 81.5841 70.3273 81.6028 70.4268 81.7581C70.5755 81.9957 70.6471 82.2734 70.6319 82.5533C70.6319 83.2118 70.2652 83.7958 70.2279 84.4668C70.1719 85.4173 71.3219 85.3055 71.9995 85.3614C73.0638 85.4371 74.1111 85.6695 75.1075 86.051C76.1269 86.4548 76.618 87.4923 77.2023 88.3496C77.7866 89.207 78.4082 90.1575 79.0671 91.0335C79.5694 91.8181 80.2795 92.4482 81.1184 92.8538C81.1868 92.8934 81.2403 92.9544 81.2706 93.0273C81.301 93.1003 81.3065 93.1812 81.2863 93.2576C80.8884 94.5995 80.0928 96.0036 78.5201 96.1278C77.6444 96.1556 76.7681 96.0994 75.9032 95.9601C75.0937 95.8759 74.293 95.7221 73.51 95.5003C73.2427 95.4196 72.9754 95.3264 72.7143 95.227C73.8866 95.9676 75.1375 96.576 76.4439 97.0411C81.0749 98.7123 86.8869 97.9108 91.0579 95.345C94.6234 93.1165 97.3947 89.8207 98.9772 85.9267H98.8964L98.4053 85.8646C98.2538 85.8547 98.1076 85.8053 97.9811 85.7214C97.8546 85.6374 97.7522 85.5219 97.6842 85.3862C97.4391 85.0657 97.266 84.6961 97.177 84.3026C97.088 83.9091 97.085 83.501 97.1683 83.1062C97.5786 81.8202 98.9648 81.3046 100.077 80.7516C100.146 80.7159 100.225 80.7028 100.301 80.7144C100.508 78.7399 100.367 76.7445 99.8847 74.8186C99.821 73.402 99.2874 72.0468 98.368 70.9668C98.368 70.9171 98.3245 70.8736 98.2996 70.8301C98.0696 70.4263 97.821 70.0535 97.5599 69.6808C97.2217 69.2032 96.8521 68.7487 96.4535 68.3202C93.7431 65.5421 90.1117 63.8478 86.2405 63.5552C86.2405 63.5986 86.2778 63.6173 86.284 63.6608C86.2813 63.6793 86.2813 63.6981 86.284 63.7167C85.7903 63.5785 85.2877 63.4747 84.7797 63.4061C83.9344 63.2878 83.0735 63.3535 82.256 63.5986C79.8944 63.8209 77.5969 64.4914 75.4867 65.5742C73.456 66.3505 71.6098 67.5418 70.0663 69.0719C67.4072 71.7527 65.6663 75.2065 65.0934 78.9376C64.9019 79.5789 64.8015 80.2439 64.795 80.9132C64.7991 81.2895 64.8281 81.6652 64.8821 82.0376C64.8448 82.4302 64.8448 82.8254 64.8821 83.218C64.9489 84.0515 65.1331 84.8713 65.4291 85.6534C65.4726 85.8832 65.5099 86.1193 65.5472 86.343C65.5637 86.3417 65.5804 86.3417 65.5969 86.343ZM90.6725 78.2666C90.9351 78.8273 91.1433 79.4119 91.2941 80.0123C91.4975 80.6826 91.6574 81.3654 91.7728 82.0563C91.9812 83.2106 91.9622 84.3945 91.7168 85.5415C91.4806 86.5294 90.9709 87.9085 89.8831 88.244C88.7953 88.5795 87.751 87.7657 87.1107 86.958C86.7765 86.4915 86.3998 86.0569 85.9856 85.6596C85.537 85.3214 85.0459 85.0435 84.5248 84.8333C83.5986 84.3984 82.2933 83.8393 82.1006 82.7148C82.0596 82.1356 82.1379 81.5541 82.3306 81.0063C82.448 80.539 82.6234 80.0883 82.8527 79.6644C83.078 79.235 83.4152 78.8744 83.8286 78.6207C84.3321 78.3411 84.9289 78.3163 85.451 78.074C86.3959 77.6329 87.3158 76.8688 88.3974 76.9992C88.7306 76.9718 89.066 77.0076 89.3858 77.1048C89.6704 77.206 89.9323 77.3623 90.1563 77.5649C90.3803 77.7675 90.5621 78.0123 90.6912 78.2852L90.6725 78.2666ZM73.5597 66.9162C73.5162 66.4627 74.2435 66.4627 74.287 66.9162C74.4175 68.2705 73.7897 69.5627 73.9078 70.9047C74.0738 71.6119 74.3048 72.3024 74.5978 72.9672C74.7584 73.6315 74.8542 74.3098 74.8837 74.9926C74.905 75.6047 74.9799 76.2138 75.1075 76.8128C75.1697 77.0613 75.2691 77.3782 75.5861 77.3596C75.829 77.3256 76.0656 77.2565 76.2885 77.1545C77.2549 76.7719 78.0379 76.0338 78.4766 75.092C78.9055 74.1538 78.9366 72.8927 80.0493 72.4454C80.296 72.3685 80.556 72.3437 80.8128 72.3726C81.0696 72.4015 81.3177 72.4834 81.5411 72.6131C81.7803 72.7232 82.0432 72.7718 82.3059 72.7545C82.5686 72.7371 82.8228 72.6543 83.0454 72.5137C83.485 72.2346 83.9465 71.9915 84.4254 71.7868C84.9928 71.6233 85.5898 71.5894 86.1721 71.6874C87.5645 71.8365 88.9507 71.9919 90.3431 72.1348C90.9656 72.2375 91.6033 72.1972 92.2079 72.0167C92.6392 71.828 93.0378 71.5722 93.3889 71.2588C94.0619 70.5689 94.8732 70.029 95.7697 69.6746C95.8571 69.6606 95.9466 69.6793 96.0211 69.727C96.0956 69.7748 96.15 69.8483 96.1738 69.9335C96.1976 70.0187 96.1892 70.1097 96.1502 70.1891C96.1112 70.2685 96.0444 70.3308 95.9624 70.3642C94.8497 70.6872 94.0976 71.6874 93.19 72.3087C91.9468 73.135 90.5109 72.8741 89.0936 72.725L86.9305 72.4889C86.2503 72.3605 85.5549 72.3333 84.8667 72.4081C83.8286 72.6318 83.0703 73.6506 81.9327 73.4767C81.4168 73.4083 80.8387 72.8989 80.3166 73.0915C79.7944 73.2841 79.5395 74.0793 79.3841 74.6136C79.0999 75.6442 78.4838 76.5525 77.6312 77.198C76.9723 77.695 75.524 78.5213 74.7843 77.8193C74.4661 77.3969 74.2958 76.8817 74.2994 76.3531C74.2124 75.7318 74.1875 75.0547 74.1254 74.4086C74.0555 73.7188 73.8793 73.0441 73.6032 72.4081C73.334 71.8552 73.1837 71.252 73.1619 70.6375C73.1619 69.3577 73.6778 68.1711 73.5597 66.9162Z" fill="#016450"/>
<path d="M97.8272 83.1246C97.5412 83.7459 97.8893 84.423 98.225 84.9884L98.2872 85.094H98.4053C98.4985 85.094 98.598 85.094 98.6912 85.1313C98.8461 85.1423 98.9998 85.1652 99.1512 85.1996C99.6015 83.977 99.9244 82.7112 100.115 81.4224C99.7231 81.615 99.3315 81.8075 98.9523 82.0436C98.4667 82.2678 98.0704 82.6485 97.8272 83.1246Z" fill="#016450"/>
<path d="M88.5964 77.7256C88.5472 77.7353 88.4965 77.7353 88.4472 77.7256H88.3789C88.124 77.7256 87.8629 77.7878 87.6143 77.825H87.5273C86.8621 78.0425 86.284 78.5208 85.6251 78.788C85.1112 78.9184 84.6083 79.0888 84.1209 79.2974C83.7524 79.5575 83.4691 79.9206 83.3065 80.3411C83.1415 80.7425 83.0145 81.1585 82.9274 81.5837C82.8282 81.818 82.7899 82.0735 82.8159 82.3266C82.842 82.5796 82.9317 82.822 83.0766 83.0312C83.6982 83.7581 84.7487 84.0501 85.563 84.4849C86.0029 84.7076 86.4072 84.9945 86.7627 85.3361C87.0838 85.6891 87.3867 86.0582 87.6702 86.4419C88.1799 87.0632 89.1932 88.051 90.051 87.3614C90.4315 86.9887 90.7098 86.5244 90.8591 86.0132C91.027 85.5583 91.1397 85.0848 91.1947 84.603C91.2873 83.5841 91.2202 82.557 90.9958 81.5588C90.8211 80.5734 90.5246 79.6134 90.1131 78.701C90.0218 78.4757 89.882 78.2732 89.7037 78.1079C89.5254 77.9426 89.3129 77.8184 89.0813 77.7443C88.9209 77.7199 88.7582 77.7137 88.5964 77.7256Z" fill="#016450"/>
<path d="M104.82 76.6761C104.698 75.5822 104.518 74.4955 104.28 73.4207C104.224 73.1225 104.193 72.7498 104.112 72.4267C104.031 72.1037 103.876 71.6253 103.733 71.2339C103.094 69.4453 102.261 67.7327 101.246 66.1271C101.153 65.9843 101.053 65.8351 100.948 65.6985C101.681 64.8701 102.409 64.0231 103.13 63.1575C103.571 62.6357 102.856 61.915 102.353 62.3934C100.359 64.3524 98.3702 66.3135 96.3852 68.2767C96.7808 68.7078 97.1503 69.1621 97.4916 69.6373C98.3432 68.6867 99.1886 67.7238 100.028 66.767C100.395 67.4318 100.761 68.1027 101.109 68.7799C101.127 68.8258 101.15 68.8696 101.178 68.9104C101.251 69.0214 101.355 69.1097 101.476 69.1651C101.644 69.5068 101.812 69.8485 101.967 70.1964C102.327 70.9822 102.626 71.7942 102.862 72.6255C102.906 72.7746 102.943 72.9299 102.974 73.0853L103.011 73.2841C103.011 73.2841 103.011 73.3959 103.011 73.4269C103.061 73.9612 103.241 74.4955 103.335 75.0298C104.033 79.2074 103.479 83.498 101.743 87.3618C100.029 91.3048 97.2795 94.7113 93.7868 97.2212C92.3835 98.2355 90.8204 99.0082 89.1621 99.5074C86.1983 100.368 83.0896 100.612 80.0277 100.226C76.9657 99.8387 74.0156 98.829 71.3593 97.2585C71.0733 97.0721 70.7874 96.8795 70.5139 96.6807C71.1355 96.1464 71.7136 95.6059 72.3103 95.0654C71.7874 94.837 71.2912 94.5516 70.8309 94.2143C69.3328 95.7737 67.8286 97.3206 66.3367 98.8862C66.281 98.9304 66.2361 98.9866 66.2052 99.0506C66.1743 99.1146 66.1582 99.1848 66.1582 99.2558C66.1582 99.3269 66.1743 99.397 66.2052 99.4611C66.2361 99.5251 66.281 99.5813 66.3367 99.6255C66.3851 99.6809 66.4449 99.7253 66.5119 99.7557C66.5789 99.7861 66.6516 99.8018 66.7252 99.8018C66.7988 99.8018 66.8715 99.7861 66.9386 99.7557C67.0056 99.7253 67.0653 99.6809 67.1137 99.6255L69.5566 97.4946C73.1612 100.063 77.4517 101.495 81.8769 101.607C82.5544 101.607 83.2444 101.607 83.9406 101.607C83.9618 104.708 84.2488 107.8 84.7984 110.852C82.2788 110.972 79.7655 111.148 77.2583 111.38H77.221H77.1589H77.1154C77.0866 111.393 77.0612 111.412 77.0408 111.436C76.9968 111.489 76.9728 111.556 76.9728 111.625C76.9728 111.694 76.9968 111.761 77.0408 111.815C77.061 111.846 77.0884 111.873 77.1208 111.893C77.1531 111.912 77.1896 111.924 77.2272 111.926C82.8114 113.003 88.5703 112.757 94.0417 111.206C94.1241 111.195 94.1989 111.152 94.2496 111.086C94.3003 111.02 94.3228 110.937 94.3121 110.855C94.3014 110.772 94.2584 110.698 94.1925 110.647C94.1266 110.596 94.0433 110.574 93.9609 110.585C91.3294 110.56 88.7021 110.601 86.0789 110.709C86.1071 110.638 86.1218 110.562 86.1224 110.485C86.1597 107.447 86.1224 104.403 85.9173 101.371C88.415 101.121 90.8339 100.357 93.0223 99.1285C96.8561 96.8177 99.9889 93.5084 102.085 89.5549C104.208 85.6109 105.157 81.142 104.82 76.6761Z" fill="#016450"/>
</svg>
