<svg width="99" height="99" viewBox="0 0 99 99" fill="none" xmlns="http://www.w3.org/2000/svg">
<path d="M83.7735 83.7736L49.6708 97.8994L15.568 83.7736L1.44224 49.6709L15.568 15.5682L49.6708 1.44239L83.7735 15.5682L97.8993 49.6709L83.7735 83.7736Z" fill="#CEF564" stroke="#016450" stroke-width="2"/>
<path d="M37.8652 52.4111L36.4892 47.9311H36.4572C36.4626 48.0378 36.4706 48.1978 36.4812 48.4111C36.4919 48.6244 36.5026 48.8538 36.5132 49.0991C36.5239 49.3391 36.5292 49.5578 36.5292 49.7551V52.4111H35.4492V46.6991H37.0972L38.4492 51.0671H38.4732L39.9052 46.6991H41.5532V52.4111H40.4252V49.7071C40.4252 49.5258 40.4279 49.3178 40.4332 49.0831C40.4439 48.8484 40.4519 48.6271 40.4572 48.4191C40.4679 48.2058 40.4759 48.0458 40.4812 47.9391H40.4492L38.9772 52.4111H37.8652ZM46.4921 52.4111L46.0761 51.0511H43.9961L43.5801 52.4111H42.2761L44.2921 46.6751H45.7721L47.7961 52.4111H46.4921ZM45.3721 48.7071C45.3454 48.6164 45.3108 48.5018 45.2681 48.3631C45.2254 48.2244 45.1828 48.0831 45.1401 47.9391C45.0974 47.7951 45.0628 47.6698 45.0361 47.5631C45.0094 47.6698 44.9721 47.8031 44.9241 47.9631C44.8814 48.1178 44.8388 48.2671 44.7961 48.4111C44.7588 48.5498 44.7294 48.6484 44.7081 48.7071L44.3001 50.0351H45.7881L45.3721 48.7071ZM53.1995 52.4111H51.9915V49.9471H49.7275V52.4111H48.5195V46.6991H49.7275V48.9391H51.9915V46.6991H53.1995V52.4111ZM58.2447 46.6991V47.6991H55.8447V52.4111H54.6367V46.6991H58.2447ZM64.1488 49.5471C64.1488 50.1391 64.0502 50.6564 63.8528 51.0991C63.6608 51.5364 63.3648 51.8778 62.9648 52.1231C62.5648 52.3684 62.0528 52.4911 61.4288 52.4911C60.8102 52.4911 60.2982 52.3684 59.8928 52.1231C59.4928 51.8778 59.1942 51.5338 58.9968 51.0911C58.8048 50.6484 58.7088 50.1311 58.7088 49.5391C58.7088 48.9471 58.8048 48.4324 58.9968 47.9951C59.1942 47.5578 59.4928 47.2191 59.8928 46.9791C60.2982 46.7338 60.8128 46.6111 61.4368 46.6111C62.0555 46.6111 62.5648 46.7338 62.9648 46.9791C63.3648 47.2191 63.6608 47.5604 63.8528 48.0031C64.0502 48.4404 64.1488 48.9551 64.1488 49.5471ZM59.9808 49.5471C59.9808 50.1444 60.0955 50.6164 60.3248 50.9631C60.5542 51.3044 60.9222 51.4751 61.4288 51.4751C61.9462 51.4751 62.3168 51.3044 62.5408 50.9631C62.7648 50.6164 62.8768 50.1444 62.8768 49.5471C62.8768 48.9444 62.7648 48.4724 62.5408 48.1311C62.3168 47.7898 61.9488 47.6191 61.4368 47.6191C60.9248 47.6191 60.5542 47.7898 60.3248 48.1311C60.0955 48.4724 59.9808 48.9444 59.9808 49.5471Z" fill="#016450"/>
</svg>
