<svg width="130" height="126" viewBox="0 0 130 126" fill="none" xmlns="http://www.w3.org/2000/svg">
<mask id="path-1-inside-1_6_1132" fill="white">
<path fill-rule="evenodd" clip-rule="evenodd" d="M21.8609 62.6821C9.61683 58.1251 0.894774 46.3309 0.894775 32.4995C0.894777 14.7187 15.3089 0.304563 33.0897 0.304565L97.7582 0.304574C115.539 0.304576 129.953 14.7187 129.953 32.4995C129.953 46.3308 121.231 58.125 108.987 62.682C121.231 67.239 129.953 79.0333 129.953 92.8646C129.953 110.645 115.539 125.06 97.7583 125.06L33.0898 125.06C15.309 125.06 0.894871 110.645 0.894873 92.8646C0.894874 79.0333 9.61688 67.2391 21.8609 62.6821Z"/>
</mask>
<path fill-rule="evenodd" clip-rule="evenodd" d="M21.8609 62.6821C9.61683 58.1251 0.894774 46.3309 0.894775 32.4995C0.894777 14.7187 15.3089 0.304563 33.0897 0.304565L97.7582 0.304574C115.539 0.304576 129.953 14.7187 129.953 32.4995C129.953 46.3308 121.231 58.125 108.987 62.682C121.231 67.239 129.953 79.0333 129.953 92.8646C129.953 110.645 115.539 125.06 97.7583 125.06L33.0898 125.06C15.309 125.06 0.894871 110.645 0.894873 92.8646C0.894874 79.0333 9.61688 67.2391 21.8609 62.6821Z" fill="#CEF564"/>
<path d="M21.8609 62.6821L22.9073 65.4937L30.4616 62.6821L22.9073 59.8705L21.8609 62.6821ZM0.894775 32.4995H3.89478H0.894775ZM33.0897 0.304565V3.30457V0.304565ZM97.7582 0.304574V3.30457V0.304574ZM108.987 62.682L107.941 59.8705L100.386 62.6821L107.941 65.4936L108.987 62.682ZM97.7583 125.06V128.06V125.06ZM33.0898 125.06L33.0898 128.06H33.0898V125.06ZM0.894873 92.8646H-2.10513H0.894873ZM22.9073 59.8705C11.7996 55.7364 3.89477 45.0373 3.89478 32.4995H-2.10522C-2.10523 47.6244 7.43411 60.5137 20.8144 65.4937L22.9073 59.8705ZM3.89478 32.4995C3.89478 16.3756 16.9658 3.30456 33.0897 3.30457V-2.69543C13.6521 -2.69544 -2.10522 13.0619 -2.10522 32.4995H3.89478ZM33.0897 3.30457L97.7582 3.30457V-2.69543L33.0897 -2.69543V3.30457ZM97.7582 3.30457C113.882 3.30458 126.953 16.3756 126.953 32.4995L132.953 32.4995C132.953 13.0619 117.196 -2.69542 97.7582 -2.69543V3.30457ZM126.953 32.4995C126.953 45.0373 119.048 55.7364 107.941 59.8705L110.034 65.4936C123.414 60.5137 132.953 47.6244 132.953 32.4995L126.953 32.4995ZM107.941 65.4936C119.048 69.6277 126.953 80.3268 126.953 92.8646H132.953C132.953 77.7397 123.414 64.8504 110.034 59.8705L107.941 65.4936ZM126.953 92.8646C126.953 108.989 113.882 122.06 97.7583 122.06V128.06C117.196 128.06 132.953 112.302 132.953 92.8646H126.953ZM97.7583 122.06L33.0898 122.06V128.06L97.7583 128.06V122.06ZM33.0898 122.06C16.9659 122.06 3.89487 108.989 3.89487 92.8646H-2.10513C-2.10513 112.302 13.6522 128.06 33.0898 128.06L33.0898 122.06ZM3.89487 92.8646C3.89487 80.3269 11.7996 69.6278 22.9073 65.4937L20.8144 59.8705C7.43415 64.8504 -2.10513 77.7397 -2.10513 92.8646H3.89487Z" fill="#016450" mask="url(#path-1-inside-1_6_1132)"/>
<path d="M46.3239 66.3031L45.6999 64.2631H42.5799L41.9559 66.3031H39.9999L43.0239 57.6991H45.2439L48.2799 66.3031H46.3239ZM44.6439 60.7471C44.6039 60.6111 44.5519 60.4391 44.4879 60.2311C44.4239 60.0231 44.3599 59.8111 44.2959 59.5951C44.2319 59.3791 44.1799 59.1911 44.1399 59.0311C44.0999 59.1911 44.0439 59.3911 43.9719 59.6311C43.9079 59.8631 43.8439 60.0871 43.7799 60.3031C43.7239 60.5111 43.6799 60.6591 43.6479 60.7471L43.0359 62.7391H45.2679L44.6439 60.7471ZM56.3851 66.3031H54.5731V62.6071H51.1771V66.3031H49.3651V57.7351H51.1771V61.0951H54.5731V57.7351H56.3851V66.3031ZM63.7848 66.3031L63.1609 64.2631H60.0408L59.4168 66.3031H57.4608L60.4848 57.6991H62.7048L65.7409 66.3031H63.7848ZM62.1049 60.7471C62.0649 60.6111 62.0129 60.4391 61.9488 60.2311C61.8849 60.0231 61.8209 59.8111 61.7568 59.5951C61.6928 59.3791 61.6409 59.1911 61.6009 59.0311C61.5608 59.1911 61.5048 59.3911 61.4329 59.6311C61.3688 59.8631 61.3048 60.0871 61.2409 60.3031C61.1849 60.5111 61.1409 60.6591 61.1089 60.7471L60.4969 62.7391H62.7288L62.1049 60.7471ZM73.846 66.3031H72.034V62.6071H68.638V66.3031H66.826V57.7351H68.638V61.0951H72.034V57.7351H73.846V66.3031ZM81.2458 66.3031L80.6218 64.2631H77.5018L76.8778 66.3031H74.9218L77.9458 57.6991H80.1658L83.2018 66.3031H81.2458ZM79.5658 60.7471C79.5258 60.6111 79.4738 60.4391 79.4098 60.2311C79.3458 60.0231 79.2818 59.8111 79.2178 59.5951C79.1538 59.3791 79.1018 59.1911 79.0618 59.0311C79.0218 59.1911 78.9658 59.3911 78.8938 59.6311C78.8298 59.8631 78.7658 60.0871 78.7018 60.3031C78.6458 60.5111 78.6018 60.6591 78.5698 60.7471L77.9578 62.7391H80.1898L79.5658 60.7471ZM87.9229 59.1271C87.5789 59.1271 87.2709 59.1951 86.9989 59.3311C86.7349 59.4671 86.5109 59.6631 86.3269 59.9191C86.1429 60.1671 86.0029 60.4711 85.9069 60.8311C85.8189 61.1911 85.7749 61.5951 85.7749 62.0431C85.7749 62.6511 85.8469 63.1711 85.9909 63.6031C86.1429 64.0271 86.3789 64.3511 86.6989 64.5751C87.0189 64.7991 87.4269 64.9111 87.9229 64.9111C88.2749 64.9111 88.6229 64.8711 88.9669 64.7911C89.3189 64.7111 89.6989 64.5991 90.1069 64.4551V65.9791C89.7309 66.1311 89.3589 66.2431 88.9909 66.3151C88.6229 66.3871 88.2109 66.4231 87.7549 66.4231C86.8749 66.4231 86.1469 66.2431 85.5709 65.8831C85.0029 65.5151 84.5829 65.0031 84.3109 64.3471C84.0389 63.6831 83.9029 62.9111 83.9029 62.0311C83.9029 61.3831 83.9909 60.7911 84.1669 60.2551C84.3429 59.7111 84.5989 59.2431 84.9349 58.8511C85.2789 58.4591 85.6989 58.1551 86.1949 57.9391C86.6989 57.7231 87.2749 57.6151 87.9229 57.6151C88.3469 57.6151 88.7709 57.6711 89.1949 57.7831C89.6269 57.8871 90.0389 58.0311 90.4309 58.2151L89.8429 59.6911C89.5229 59.5391 89.1989 59.4071 88.8709 59.2951C88.5509 59.1831 88.2349 59.1271 87.9229 59.1271Z" fill="#016450"/>
</svg>
