<svg width="85" height="24" viewBox="0 0 85 24" fill="none" xmlns="http://www.w3.org/2000/svg">
<path d="M13.1512 7.45668H17.5724C17.5084 3.56818 14.3124 0.883522 9.45446 0.883522C4.67108 0.883522 1.1661 3.52557 1.18741 7.48864C1.17676 10.706 3.44593 12.549 7.13201 13.4332L9.50772 14.0298C11.8834 14.6051 13.2045 15.2869 13.2151 16.7571C13.2045 18.3551 11.6917 19.4418 9.34792 19.4418C6.95091 19.4418 5.22505 18.3338 5.07591 16.1499H0.612127C0.729315 20.8693 4.10645 23.3089 9.40119 23.3089C14.7279 23.3089 17.86 20.7628 17.8706 16.7678C17.86 13.1349 15.1221 11.2067 11.3295 10.3544L9.36923 9.88565C7.47292 9.44886 5.88556 8.74574 5.91753 7.17969C5.91753 5.77344 7.16397 4.74006 9.4225 4.74006C11.6278 4.74006 12.9807 5.74148 13.1512 7.45668ZM41.0232 12.0909C41.0232 4.95312 36.5914 0.883522 30.8066 0.883522C24.9898 0.883522 20.5899 4.95312 20.5899 12.0909C20.5899 19.1967 24.9898 23.2983 30.8066 23.2983C36.5914 23.2983 41.0232 19.2287 41.0232 12.0909ZM36.3463 12.0909C36.3463 16.7145 34.1517 19.218 30.8066 19.218C27.4507 19.218 25.2668 16.7145 25.2668 12.0909C25.2668 7.46733 27.4507 4.96378 30.8066 4.96378C34.1517 4.96378 36.3463 7.46733 36.3463 12.0909ZM52.1746 23C58.8224 23 62.8493 18.8878 62.8493 12.0696C62.8493 5.27273 58.8224 1.18182 52.2385 1.18182H44.4403V23H52.1746ZM49.0532 19.0476V5.13423H51.9935C56.0844 5.13423 58.2471 7.2223 58.2471 12.0696C58.2471 16.9382 56.0844 19.0476 51.9829 19.0476H49.0532ZM68.7966 23L70.4159 18.0249H78.2888L79.9081 23H84.8513L77.33 1.18182H71.3854L63.8534 23H68.7966ZM71.5878 14.424L74.2725 6.16761H74.4429L77.1276 14.424H71.5878Z" fill="#FFA72B"/>
</svg>
