<svg width="173" height="173" viewBox="0 0 173 173" fill="none" xmlns="http://www.w3.org/2000/svg">
<path d="M145.963 145.963L86.2999 170.676L26.6369 145.963L1.92371 86.2998L26.6369 26.6368L86.2999 1.92365L145.963 26.6369L170.676 86.2998L145.963 145.963Z" fill="#CEF564" stroke="#016450" stroke-width="3"/>
<path d="M59.7376 92.1982L56.6416 82.1182H56.5696C56.5816 82.3582 56.5996 82.7182 56.6236 83.1982C56.6476 83.6782 56.6716 84.1942 56.6956 84.7462C56.7196 85.2862 56.7316 85.7782 56.7316 86.2222V92.1982H54.3016V79.3462H58.0096L61.0516 89.1742H61.1056L64.3276 79.3462H68.0356V92.1982H65.4976V86.1142C65.4976 85.7062 65.5036 85.2382 65.5156 84.7102C65.5396 84.1822 65.5576 83.6842 65.5696 83.2162C65.5936 82.7362 65.6116 82.3762 65.6236 82.1362H65.5516L62.2396 92.1982H59.7376ZM79.1481 92.1982L78.2121 89.1382H73.5321L72.5961 92.1982H69.6621L74.1981 79.2922H77.5281L82.0821 92.1982H79.1481ZM76.6281 83.8642C76.5681 83.6602 76.4901 83.4022 76.3941 83.0902C76.2981 82.7782 76.2021 82.4602 76.1061 82.1362C76.0101 81.8122 75.9321 81.5302 75.8721 81.2902C75.8121 81.5302 75.7281 81.8302 75.6201 82.1902C75.5241 82.5382 75.4281 82.8742 75.3321 83.1982C75.2481 83.5102 75.1821 83.7322 75.1341 83.8642L74.2161 86.8522H77.5641L76.6281 83.8642ZM94.2398 92.1982H91.5218V86.6542H86.4278V92.1982H83.7098V79.3462H86.4278V84.3862H91.5218V79.3462H94.2398V92.1982ZM105.592 79.3462V81.5962H100.192V92.1982H97.4735V79.3462H105.592ZM118.876 85.7542C118.876 87.0862 118.654 88.2502 118.21 89.2462C117.778 90.2302 117.112 90.9982 116.212 91.5502C115.312 92.1022 114.16 92.3782 112.756 92.3782C111.364 92.3782 110.212 92.1022 109.3 91.5502C108.4 90.9982 107.728 90.2242 107.284 89.2282C106.852 88.2322 106.636 87.0682 106.636 85.7362C106.636 84.4042 106.852 83.2462 107.284 82.2622C107.728 81.2782 108.4 80.5162 109.3 79.9762C110.212 79.4242 111.37 79.1482 112.774 79.1482C114.166 79.1482 115.312 79.4242 116.212 79.9762C117.112 80.5162 117.778 81.2842 118.21 82.2802C118.654 83.2642 118.876 84.4222 118.876 85.7542ZM109.498 85.7542C109.498 87.0982 109.756 88.1602 110.272 88.9402C110.788 89.7082 111.616 90.0922 112.756 90.0922C113.92 90.0922 114.754 89.7082 115.258 88.9402C115.762 88.1602 116.014 87.0982 116.014 85.7542C116.014 84.3982 115.762 83.3362 115.258 82.5682C114.754 81.8002 113.926 81.4162 112.774 81.4162C111.622 81.4162 110.788 81.8002 110.272 82.5682C109.756 83.3362 109.498 84.3982 109.498 85.7542Z" fill="#016450"/>
</svg>
